<?xml version="1.0" encoding="UTF-8" standalone="no"?>
<svg width="136px" height="35px" viewBox="0 0 136 35" version="1.1" xmlns="http://www.w3.org/2000/svg" xmlns:xlink="http://www.w3.org/1999/xlink">
    <defs></defs>
    <g id="Page-1" stroke="none" stroke-width="1" fill="none" fill-rule="evenodd">
        <g id="logo">
            <path d="M18.9119964,34.9198128 C8.15007976,35.7761461 -0.800586906,26.8243128 0.0569130944,16.0623961 C0.731829761,7.59297945 7.59299643,0.731812782 16.0624131,0.0568961158 C26.8260798,-0.800603884 35.7784964,8.15297945 34.9198298,18.9166461 C34.2431631,27.3860628 27.3814131,34.2460628 18.9119964,34.9198128 L18.9119964,34.9198128 Z M18.7241631,2.38264612 C9.39782976,1.63947945 1.63949643,9.39722945 2.38266309,18.7235628 C2.96774643,26.0630628 8.91307976,32.0089794 16.2525798,32.5940628 C25.5789131,33.3372294 33.3372464,25.5788961 32.5940798,16.2525628 C32.0089964,8.91306278 26.0630798,2.96772945 18.7241631,2.38264612 L18.7241631,2.38264612 Z" id="Shape" fill="#ED043F"></path>
            <path d="M19.1234167,10.5 L12.8333333,18.2221667 L16.0994167,18.2186667 L14.45325,25.0045833 L21.6568333,16.3671667 L18.41175,16.3700833 L19.1234167,10.5 Z" id="Shape" fill="#FFFFFF"></path>
            <path d="M49.3977143,22.7984167 C46.6154286,22.7984167 44.5428571,20.58525 44.5428571,17.7735833 C44.5428571,14.9893333 46.5748571,12.7201667 49.4657143,12.7201667 C51.2245714,12.7201667 52.288,13.3460833 53.2022857,14.2374167 L52.1245714,15.5044167 C51.3611429,14.7805 50.5422857,14.2934167 49.4514286,14.2934167 C47.6245714,14.2934167 46.3011429,15.8246667 46.3011429,17.7461667 C46.3011429,19.6670833 47.624,21.2263333 49.4514286,21.2263333 C50.6245714,21.2263333 51.3742857,20.73925 52.1925714,19.9593333 L53.2702857,21.0729167 C52.2748571,22.1305 51.184,22.7984167 49.3977143,22.7984167 L49.3977143,22.7984167 Z" id="Shape" fill="#FFFFFF"></path>
            <path d="M68.26,22.6315833 L66.4874286,22.6315833 L65.5194286,20.279 L61.0057143,20.279 L60.0234286,22.6315833 L58.3051429,22.6315833 L62.5057143,12.8175833 L64.0605714,12.8175833 L68.26,22.6315833 L68.26,22.6315833 Z M63.2554286,14.8633333 L61.6188571,18.76175 L64.9057143,18.76175 L63.2554286,14.8633333 L63.2554286,14.8633333 Z" id="Shape" fill="#FFFFFF"></path>
            <path d="M77.5634286,19.4996667 L75.668,19.4996667 L75.668,22.6315833 L73.9902857,22.6315833 L73.9902857,12.887 L77.7542857,12.887 C79.9771429,12.887 81.3817143,14.1674167 81.3817143,16.1583333 C81.3811429,18.3580833 79.6634286,19.4996667 77.5634286,19.4996667 L77.5634286,19.4996667 Z M77.6182857,14.44625 L75.668,14.44625 L75.668,17.9544167 L77.6182857,17.9544167 C78.8862857,17.9544167 79.6777143,17.2445 79.6777143,16.2003333 C79.6771429,15.04475 78.8725714,14.44625 77.6182857,14.44625 L77.6182857,14.44625 Z" id="Shape" fill="#FFFFFF"></path>
            <path d="M91.2302857,22.6315833 L89.5394286,22.6315833 L89.5394286,14.4736667 L86.512,14.4736667 L86.512,12.8864167 L94.2577143,12.8864167 L94.2577143,14.4736667 L91.2302857,14.4736667 L91.2302857,22.6315833 L91.2302857,22.6315833 Z" id="Shape" fill="#FFFFFF"></path>
            <path d="M108.142857,18.4135 C108.142857,21.3225833 106.533714,22.7844167 104.037714,22.7844167 C101.555429,22.7844167 99.9742857,21.3225833 99.9742857,18.4963333 L99.9742857,12.8864167 L101.651429,12.8864167 L101.651429,18.4269167 C101.651429,20.237 102.565714,21.2111667 104.065714,21.2111667 C105.552,21.2111667 106.465714,20.2924167 106.465714,18.4963333 L106.465714,12.8864167 L108.143429,12.8864167 L108.143429,18.4135 L108.142857,18.4135 Z" id="Shape" fill="#FFFFFF"></path>
            <path d="M120.664571,22.6315833 L118.319429,19.2348333 L116.218857,19.2348333 L116.218857,22.6315833 L114.541143,22.6315833 L114.541143,12.887 L118.796,12.887 C120.991429,12.887 122.341714,14.07 122.341714,15.9775 C122.341714,17.59275 121.400571,18.5663333 120.064571,18.9425833 L122.641714,22.6315833 L120.664571,22.6315833 L120.664571,22.6315833 Z M118.659429,14.44625 L116.218857,14.44625 L116.218857,17.7175833 L118.673714,17.7175833 C119.873714,17.7175833 120.637714,17.0770833 120.637714,16.0749167 C120.637143,15.00275 119.900571,14.44625 118.659429,14.44625 L118.659429,14.44625 Z" id="Shape" fill="#FFFFFF"></path>
            <path d="M135.571429,14.41825 L130.171429,14.41825 L130.171429,16.95225 L134.958286,16.95225 L134.958286,18.4835 L130.171429,18.4835 L130.171429,21.1003333 L135.64,21.1003333 L135.64,22.6315833 L128.494286,22.6315833 L128.494286,12.887 L135.571429,12.887 L135.571429,14.41825 L135.571429,14.41825 Z" id="Shape" fill="#FFFFFF"></path>
        </g>
    </g>
</svg>